<svg width="12" height="6" viewBox="0 0 12 6" fill="none" xmlns="http://www.w3.org/2000/svg">
<path d="M0.979094 0.36H3.44309C4.04576 0.36 4.51509 0.512 4.85109 0.816C5.18709 1.11467 5.35509 1.536 5.35509 2.08C5.35509 2.624 5.18709 3.048 4.85109 3.352C4.51509 3.656 4.04576 3.808 3.44309 3.808H2.01109V6H0.979094V0.36ZM3.31509 3.016C4.02443 3.016 4.37909 2.70667 4.37909 2.088C4.37909 1.77333 4.29109 1.54133 4.11509 1.392C3.93909 1.23733 3.67243 1.16 3.31509 1.16H2.01109V3.016H3.31509ZM10.0523 0.36H11.0203V6H10.2443L7.22034 2.064V6H6.26034V0.36H7.02834L10.0523 4.288V0.36Z" fill="white"/>
</svg>
