<svg width="10" height="7" viewBox="0 0 10 7" fill="none" xmlns="http://www.w3.org/2000/svg">
<path d="M0.608 6V0.36H1.64V5.152H4.272V6H0.608ZM9.44481 2.952V5.656C9.18881 5.784 8.87681 5.88533 8.50881 5.96C8.14615 6.03467 7.77548 6.072 7.39681 6.072C6.81548 6.072 6.31148 5.95733 5.88481 5.728C5.45815 5.49333 5.13015 5.16 4.90081 4.728C4.67681 4.29067 4.56481 3.77333 4.56481 3.176C4.56481 2.584 4.67681 2.072 4.90081 1.64C5.13015 1.20267 5.45281 0.869333 5.86881 0.64C6.29015 0.405333 6.78348 0.288 7.34881 0.288C7.74348 0.288 8.11415 0.346666 8.46081 0.464C8.80748 0.576 9.09548 0.738667 9.32481 0.952L8.98081 1.696C8.71948 1.49333 8.46081 1.34933 8.20481 1.264C7.95415 1.17333 7.67681 1.128 7.37281 1.128C6.79148 1.128 6.35148 1.30133 6.05281 1.648C5.75948 1.98933 5.61281 2.49867 5.61281 3.176C5.61281 4.56267 6.22081 5.256 7.43681 5.256C7.79948 5.256 8.16215 5.20533 8.52481 5.104V3.688H7.30881V2.952H9.44481Z" fill="white"/>
</svg>
