<svg width="20" height="16" viewBox="0 0 20 16" fill="none" xmlns="http://www.w3.org/2000/svg">
<path d="M4.54169 2.25834L1.66669 8.00001V13C1.66669 13.442 1.84228 13.866 2.15484 14.1785C2.4674 14.4911 2.89133 14.6667 3.33335 14.6667H16.6667C17.1087 14.6667 17.5326 14.4911 17.8452 14.1785C18.1578 13.866 18.3334 13.442 18.3334 13V8.00001L15.4584 2.25834C15.3204 1.98067 15.1077 1.74699 14.8442 1.58358C14.5806 1.42017 14.2768 1.33351 13.9667 1.33334H6.03335C5.72328 1.33351 5.41941 1.42017 5.15589 1.58358C4.89237 1.74699 4.67967 1.98067 4.54169 2.25834V2.25834Z" stroke="#CDD3D6" stroke-width="2" stroke-linecap="round" stroke-linejoin="round"/>
</svg>
