<svg width="18" height="15" viewBox="0 0 18 15" fill="none" xmlns="http://www.w3.org/2000/svg">
<path d="M12.2593 13.6667V12.2593C12.2593 11.5127 11.9627 10.7968 11.4348 10.2689C10.9069 9.74101 10.191 9.44444 9.44444 9.44444H3.81481C3.06828 9.44444 2.35232 9.74101 1.82444 10.2689C1.29656 10.7968 1 11.5127 1 12.2593V13.6667M16.4815 13.6667V12.2593C16.481 11.6356 16.2734 11.0297 15.8913 10.5368C15.5092 10.0439 14.9742 9.69184 14.3704 9.53593M11.5556 1.09148C12.161 1.24651 12.6977 1.59864 13.0809 2.09237C13.4642 2.58609 13.6722 3.19332 13.6722 3.81833C13.6722 4.44334 13.4642 5.05057 13.0809 5.5443C12.6977 6.03802 12.161 6.39016 11.5556 6.54518M9.44445 3.81481C9.44445 5.36939 8.18421 6.62963 6.62963 6.62963C5.07505 6.62963 3.81481 5.36939 3.81481 3.81481C3.81481 2.26024 5.07505 1 6.62963 1C8.18421 1 9.44445 2.26024 9.44445 3.81481Z" stroke="white" stroke-opacity="0.8" stroke-width="2" stroke-linecap="round" stroke-linejoin="round"/>
</svg>
