<svg width="16" height="14" viewBox="0 0 16 14" fill="none" xmlns="http://www.w3.org/2000/svg">
<path d="M14.2453 2.96V1.48018L4.27321 1.47982V2.95965L14.2453 2.96ZM14.2454 8.87892L14.2452 5.17995L4.27311 5.17958L4.27338 8.87855L14.2454 8.87892ZM14.2453 0.000362697C15.0323 0.000362697 15.6699 0.661815 15.6699 1.48019L15.67 8.87892C15.67 9.69733 15.0326 10.3587 14.2454 10.3587L4.27338 10.3584C3.48627 10.3584 2.84877 9.69696 2.84877 8.87855L2.85573 1.47982C2.85573 0.661452 3.48609 0 4.27321 0L14.2453 0.000362697ZM1.4246 11.8397H12.1091V13.3195L1.42477 13.3191C0.637667 13.3191 0.00017093 12.6576 0.00017093 11.8393L0 3.70064H1.4246V11.8397Z" fill="white" fill-opacity="0.8"/>
</svg>
