<svg width="15" height="15" viewBox="0 0 15 15" fill="none" xmlns="http://www.w3.org/2000/svg">
<path d="M11.2778 9.22222C10.1425 9.22222 9.22222 10.1425 9.22222 11.2778C9.22222 12.413 10.1425 13.3333 11.2778 13.3333C12.413 13.3333 13.3333 12.413 13.3333 11.2778C13.3333 10.1425 12.413 9.22222 11.2778 9.22222ZM11.2778 9.22222V4.42593C11.2778 4.06248 11.1334 3.71392 10.8764 3.45693C10.6194 3.19993 10.2709 3.05556 9.90741 3.05556H7.85185M3.05556 5.11111C4.19081 5.11111 5.11111 4.19081 5.11111 3.05556C5.11111 1.9203 4.19081 1 3.05556 1C1.9203 1 1 1.9203 1 3.05556C1 4.19081 1.9203 5.11111 3.05556 5.11111ZM3.05556 5.11111V13.3333" stroke="white" stroke-width="2" stroke-linecap="round" stroke-linejoin="round"/>
</svg>
